<?xml version="1.0" encoding="UTF-8" standalone="no"?>
<!-- Created with Inkscape (http://www.inkscape.org/) -->

<svg
   width="256"
   height="256"
   viewBox="0 0 67.73333 67.73333"
   version="1.1"
   id="svg1231"
   xmlns:inkscape="http://www.inkscape.org/namespaces/inkscape"
   xmlns:sodipodi="http://sodipodi.sourceforge.net/DTD/sodipodi-0.dtd"
   xmlns="http://www.w3.org/2000/svg"
   xmlns:svg="http://www.w3.org/2000/svg">
  <g
     inkscape:label="Layer 1"
     inkscape:groupmode="layer"
     id="layer1">
    <path
       style="fill:#000000;fill-opacity:1;stroke:#000000;stroke-width:0.264583px;stroke-linecap:butt;stroke-linejoin:miter;stroke-opacity:1"
       d="m 1.9764291,13.917765 1.19597,12.65739 0.78564,3.04934 1.23329,3.13607 0.52855,0.59902 1.30376,0.49331 6.6421099,1.02187 7.1002,0.0176 2.43133,-0.21142 1.81469,-0.5814 0.8633,-0.70474 5.17979,-12.27999 0.54617,-0.72235 0.88092,-0.68711 0.8633,-0.15857 0.89853,0.0705 0.84569,0.54617 0.59902,0.44046 0.54617,0.95139 4.36935,10.80005 0.45807,0.82806 0.54617,0.70474 0.65188,0.36998 1.12758,0.33475 1.95563,0.12333 2.30801,0.0881 3.66461,-0.0352 3.04798,-0.10571 2.69561,-0.26427 2.83655,-0.68712 1.21566,-0.44046 0.59903,-0.63426 c 0,0 0.96901,-2.57228 0.96901,-2.64275 0,-0.0705 0.70473,-3.31225 0.70473,-3.31225 l 0.4757,-2.73084 0.54617,-4.54554 0.49331,-3.89365 0.10571,-1.30376 -0.24666,-0.26428 -0.68711,-0.24665 -2.76608,-0.14095 -10.6591,-0.10571 -9.54915,0.35237 -7.91063,0.0881 -11.29337,-0.29952 -7.62874,-0.24665 -4.7217199,0.0176 -2.71323,0.0881 z"
       id="path888-2" />
    <circle
       style="fill:#d40000;fill-opacity:1;stroke:none;stroke-width:2"
       id="path1092"
       cx="52.224155"
       cy="22.922806"
       r="7.1892617" />
  </g>
</svg>
